<?xml version="1.0" standalone="no"?>
<!DOCTYPE svg PUBLIC "-//W3C//DTD SVG 20010904//EN"
 "http://www.w3.org/TR/2001/REC-SVG-20010904/DTD/svg10.dtd">
<svg version="1.0" xmlns="http://www.w3.org/2000/svg"
 viewBox="0 0 2600.000000 2600.000000"
 preserveAspectRatio="xMidYMid meet">
<metadata>
Created by potrace 1.15, written by Peter Selinger 2001-2017
</metadata>
<g transform="translate(0.000000,2600.000000) scale(0.100000,-0.100000)"
fill="#000000" stroke="none">
<path d="M16604 24000 c-209 -29 -495 -197 -787 -462 -102 -92 -179 -188 -219
-274 -29 -62 -33 -78 -32 -154 1 -51 9 -119 22 -170 30 -118 29 -180 -7 -265
-40 -97 -45 -138 -27 -226 9 -40 16 -88 16 -105 0 -36 -33 -103 -111 -225
-128 -200 -138 -357 -37 -619 87 -230 109 -314 122 -470 l5 -66 -262 -62
c-452 -108 -533 -120 -1177 -172 -662 -54 -895 -116 -1059 -280 -56 -56 -79
-71 -151 -100 -171 -68 -401 -180 -680 -330 -447 -241 -626 -348 -900 -541
-169 -119 -265 -178 -510 -314 -561 -310 -791 -487 -1311 -1005 -283 -282
-388 -412 -729 -900 -365 -521 -539 -726 -695 -818 -38 -22 -160 -77 -270
-122 -257 -104 -444 -195 -521 -252 -146 -109 -219 -259 -217 -448 2 -215 95
-351 363 -528 230 -152 457 -252 574 -252 112 0 208 53 260 143 13 23 37 78
52 122 33 97 39 105 74 105 56 0 179 118 232 224 17 33 47 128 68 211 48 191
80 256 168 337 228 212 238 226 438 562 305 513 944 1130 1493 1441 139 79
187 88 430 79 181 -6 201 -5 255 14 l60 20 53 -23 c76 -34 152 -87 253 -176
226 -200 301 -250 450 -299 99 -34 142 -35 199 -5 33 17 158 146 335 348 l131
150 8 -74 c9 -87 -7 -437 -28 -624 -20 -168 -62 -424 -124 -755 -82 -434 -99
-536 -142 -822 -75 -509 -80 -550 -86 -758 -4 -173 -2 -230 16 -368 38 -291
28 -440 -53 -817 -19 -88 -40 -205 -47 -259 -13 -108 -8 -307 12 -441 10 -73
9 -90 -15 -205 -52 -253 -60 -357 -61 -740 0 -391 4 -439 71 -765 91 -445 212
-819 346 -1065 82 -150 160 -253 303 -395 150 -151 265 -242 580 -460 379
-262 458 -330 509 -440 15 -30 29 -80 32 -112 l6 -59 -40 -28 c-94 -65 -152
-190 -152 -326 0 -162 67 -354 253 -720 82 -162 162 -334 178 -382 33 -102 61
-243 84 -418 70 -545 124 -728 273 -926 131 -173 339 -346 537 -444 298 -149
542 -142 704 20 98 98 159 246 168 411 10 165 -25 299 -156 596 -88 201 -124
297 -144 382 l-14 58 111 6 c78 4 138 13 201 32 179 52 410 182 555 311 36 32
72 64 82 72 12 10 10 -5 -13 -70 -45 -133 -62 -295 -56 -543 6 -221 19 -334
67 -605 62 -345 65 -614 14 -975 -66 -466 -280 -1159 -499 -1616 -202 -422
-252 -585 -243 -788 6 -126 28 -192 94 -281 102 -139 269 -199 549 -200 148 0
273 -11 625 -56 322 -41 568 -52 772 -35 219 18 305 56 329 144 21 77 -11 144
-146 312 -85 105 -108 144 -192 315 -108 219 -147 284 -256 420 -100 125 -156
234 -163 320 -12 127 45 293 274 800 301 669 360 820 416 1070 14 64 36 190
48 280 40 296 29 915 -23 1309 -6 42 -12 283 -15 536 -3 253 -8 546 -13 650
-8 172 -13 204 -47 335 -23 90 -35 154 -31 170 4 15 27 39 58 60 144 97 178
202 135 416 -8 43 -20 135 -26 204 -30 334 -90 686 -160 935 -54 196 -269 870
-395 1242 -215 636 -450 1209 -655 1598 l-58 110 -4 115 c-4 93 -13 144 -46
270 -64 242 -73 305 -102 718 -11 158 -29 357 -41 442 -37 283 -36 509 3 595
6 14 32 37 57 52 192 112 479 341 696 555 93 92 171 168 172 168 2 0 3 -11 3
-24 0 -56 53 -308 84 -399 44 -127 103 -223 259 -420 71 -89 139 -181 153
-204 45 -75 66 -155 89 -343 66 -522 130 -704 326 -930 127 -146 150 -176 184
-242 46 -92 51 -156 29 -369 -22 -226 -23 -488 -1 -587 33 -148 94 -244 183
-288 40 -20 56 -33 60 -53 24 -114 86 -187 207 -245 273 -132 528 -87 692 121
160 205 218 521 151 839 -8 38 -42 224 -76 413 -93 523 -137 712 -229 983 -92
268 -145 377 -441 903 -250 443 -299 650 -271 1145 25 434 29 567 20 778 -20
523 -105 888 -265 1139 -70 110 -228 251 -312 277 -12 4 -86 72 -165 150 -271
272 -557 488 -1022 773 -99 60 -215 129 -257 152 -43 24 -78 45 -78 47 0 2 23
41 52 87 66 106 175 325 223 450 37 96 38 97 70 97 18 0 61 9 96 20 110 34
225 125 335 266 90 115 140 204 174 311 82 256 55 517 -67 645 l-36 37 21 103
c30 147 33 179 33 334 1 223 -26 382 -98 574 -129 345 -332 600 -544 682 -72
27 -205 34 -279 14 l-55 -15 -30 35 c-73 83 -189 145 -335 178 -83 19 -248 27
-326 16z"/>
<path d="M9660 8625 c-389 -53 -723 -218 -1001 -495 -214 -212 -350 -427 -434
-684 -121 -369 -127 -694 -18 -1076 150 -530 596 -988 1135 -1164 181 -59 298
-78 523 -83 188 -5 208 -4 335 22 567 114 1009 442 1259 935 132 259 191 505
191 800 0 512 -210 978 -593 1318 -376 334 -901 495 -1397 427z m202 -202 c24
-9 53 -23 66 -31 l22 -14 -35 -47 c-52 -68 -83 -125 -125 -225 l-37 -90 -320
-107 -320 -106 -117 62 c-64 34 -121 66 -126 71 -31 31 175 266 292 332 221
126 575 204 700 155z m749 -176 c84 -19 127 -41 226 -116 97 -73 199 -172 277
-269 l59 -73 -25 -27 c-14 -15 -56 -83 -93 -152 -37 -69 -80 -148 -96 -176
l-29 -52 -68 16 c-51 12 -123 16 -298 16 l-230 1 -61 90 c-94 138 -239 332
-290 386 -40 43 -45 53 -39 81 10 52 81 189 127 247 l43 54 215 -6 c137 -3
240 -11 282 -20z m-1722 -543 l121 -66 0 -345 0 -346 -83 -81 c-70 -68 -140
-154 -256 -316 l-18 -25 -54 36 c-30 20 -80 59 -111 88 -53 49 -58 57 -75 129
-27 117 -25 458 5 601 24 115 49 165 114 228 51 49 208 163 225 163 7 0 66
-30 132 -66z m1861 -484 c163 -21 146 -5 224 -200 37 -94 92 -242 123 -328 51
-147 54 -159 43 -197 -39 -132 -204 -358 -353 -487 l-68 -58 -97 6 c-113 7
-474 42 -477 46 -1 2 -14 64 -29 138 -15 74 -47 217 -72 317 -24 100 -44 186
-44 192 0 10 208 357 293 488 30 46 55 74 69 78 67 15 284 17 388 5z m-1200
-563 l265 -73 22 -84 c30 -113 112 -479 119 -534 l6 -43 -166 -171 -166 -170
-92 20 c-195 42 -390 125 -500 214 -46 36 -65 60 -92 117 -40 86 -75 191 -116
347 l-30 114 43 66 c58 89 190 253 233 289 l36 29 87 -24 c47 -13 205 -56 351
-97z m1860 -181 c0 -23 -63 -187 -109 -281 -95 -197 -218 -359 -376 -496 -49
-43 -91 -76 -93 -74 -2 1 2 43 9 91 l13 89 116 115 c168 167 287 337 340 487
19 52 27 63 49 66 43 7 51 7 51 3z m-2382 -885 c127 -76 285 -134 496 -182 61
-13 86 -25 110 -48 38 -38 29 -39 -94 -12 -168 38 -347 113 -495 209 -141 90
-154 115 -17 33z"/>
</g>
</svg>
