<?xml version="1.0" standalone="no"?>
<!DOCTYPE svg PUBLIC "-//W3C//DTD SVG 20010904//EN"
 "http://www.w3.org/TR/2001/REC-SVG-20010904/DTD/svg10.dtd">
<svg version="1.0" xmlns="http://www.w3.org/2000/svg"
 viewBox="0 0 2600.000000 2600.000000"
 preserveAspectRatio="xMidYMid meet">
<metadata>
Created by potrace 1.15, written by Peter Selinger 2001-2017
</metadata>
<g transform="translate(0.000000,2600.000000) scale(0.100000,-0.100000)"
fill="#000000" stroke="none">
<path d="M14850 22485 c-243 -66 -439 -269 -490 -509 -16 -72 -13 -213 5 -291
31 -134 117 -271 228 -362 326 -268 824 -158 1012 222 49 98 68 183 68 295 0
287 -178 534 -453 630 -84 30 -286 38 -370 15z"/>
<path d="M9685 21054 c-93 -20 -218 -83 -288 -145 -77 -68 -150 -182 -183
-282 -38 -117 -39 -267 -1 -383 46 -140 131 -252 254 -334 190 -127 419 -141
632 -38 207 99 351 331 351 563 0 232 -143 461 -350 564 -139 68 -269 85 -415
55z"/>
<path d="M19645 20494 c-166 -35 -274 -92 -386 -203 -64 -65 -95 -106 -126
-166 -65 -128 -78 -181 -77 -330 0 -112 4 -141 26 -207 67 -202 210 -360 396
-438 399 -168 843 50 959 470 28 102 23 282 -9 382 -40 120 -92 204 -183 295
-68 67 -99 89 -176 127 -54 25 -127 52 -171 60 -71 15 -205 20 -253 10z"/>
<path d="M17072 17920 c-24 -5 -85 -31 -135 -59 -131 -70 -177 -81 -365 -91
-183 -10 -257 -26 -344 -72 -87 -46 -158 -122 -263 -282 -97 -147 -161 -217
-220 -242 -19 -8 -65 -14 -102 -14 -81 0 -119 -19 -160 -81 -26 -40 -28 -52
-34 -178 l-6 -136 -71 -202 c-39 -111 -79 -242 -88 -290 -38 -205 19 -342 170
-409 33 -14 62 -27 63 -28 1 -1 -4 -24 -12 -51 -37 -121 1 -227 102 -283 13
-8 14 -18 4 -78 -50 -314 -86 -1145 -62 -1434 17 -204 37 -261 136 -394 150
-201 159 -328 57 -776 l-38 -164 -47 -17 c-66 -24 -73 -31 -86 -95 -16 -83
-110 -270 -167 -333 -53 -59 -147 -126 -274 -194 -194 -104 -377 -153 -1105
-292 -132 -26 -296 -60 -365 -77 -285 -69 -917 -261 -966 -293 -39 -25 -54
-58 -70 -151 -18 -107 -98 -278 -272 -587 -142 -250 -201 -369 -292 -582 -217
-513 -550 -1066 -973 -1615 -66 -85 -139 -190 -164 -232 -24 -43 -65 -100 -90
-128 -51 -56 -70 -61 -150 -34 -101 34 -197 7 -287 -83 -45 -46 -68 -78 -149
-206 -20 -31 -41 -57 -46 -57 -5 0 -12 12 -16 27 -17 69 -86 134 -235 221 -52
30 -144 92 -205 137 -60 45 -173 124 -250 176 -175 117 -277 215 -413 394
-132 174 -158 202 -307 334 -335 297 -521 414 -660 414 -40 1 -66 -8 -126 -40
-42 -22 -95 -44 -118 -48 -37 -6 -44 -3 -88 33 -193 161 -359 245 -656 331
-73 21 -186 56 -252 77 l-120 38 -270 5 c-262 6 -271 7 -303 29 -18 13 -93
104 -167 202 -195 258 -295 345 -428 371 -48 10 -60 9 -93 -7 -94 -46 -52
-166 169 -482 54 -79 96 -146 92 -150 -4 -4 -46 -7 -93 -7 -76 0 -94 4 -141
29 -104 54 -211 177 -306 351 -60 110 -114 185 -176 248 -111 111 -221 135
-315 68 -25 -17 -47 -31 -49 -31 -3 0 -36 47 -75 105 -75 112 -123 166 -170
190 -113 58 -237 1 -257 -118 -6 -37 -7 -39 -39 -35 -39 5 -47 -10 -46 -78 0
-45 15 -79 89 -199 51 -85 63 -112 169 -380 130 -331 150 -357 337 -450 165
-82 226 -127 431 -323 246 -237 276 -248 601 -238 229 7 306 -1 508 -48 59
-14 172 -37 250 -51 78 -14 178 -37 222 -50 44 -13 135 -38 203 -55 119 -30
208 -63 246 -92 18 -14 18 -17 -15 -83 -56 -114 -40 -208 48 -285 50 -44 179
-127 340 -219 l130 -74 6 -78 c12 -151 90 -324 209 -461 29 -34 186 -185 348
-337 162 -151 428 -406 590 -566 328 -324 367 -356 785 -637 347 -234 405
-268 718 -425 375 -187 468 -214 607 -179 143 36 259 114 660 442 113 92 284
231 380 308 213 169 348 304 590 586 237 277 326 374 425 462 l79 71 8 -29
c12 -44 -9 -281 -38 -418 -40 -191 -113 -395 -223 -625 -146 -302 -193 -433
-301 -836 -34 -126 -104 -360 -157 -520 -109 -334 -155 -503 -178 -665 -23
-154 -32 -614 -16 -787 11 -118 44 -334 57 -375 5 -17 193 -18 3754 -18 l3748
0 8 138 c5 75 8 263 8 417 0 388 -13 473 -134 900 -76 269 -94 369 -95 525 0
74 4 157 8 184 l9 49 98 -7 c54 -3 169 -20 257 -37 181 -36 358 -48 446 -30
263 55 488 372 612 863 57 222 73 367 100 893 29 563 51 774 121 1129 64 325
84 468 91 651 8 246 -27 401 -111 480 l-35 32 113 114 c119 121 164 187 191
283 35 122 2 286 -64 320 -39 21 -67 20 -118 -4 l-43 -19 0 257 c0 533 -49
831 -173 1052 -60 107 -179 224 -282 277 -112 57 -339 128 -738 228 -482 122
-870 231 -954 270 -155 71 -233 181 -393 558 -122 286 -225 379 -345 308 -20
-11 -38 -21 -41 -21 -2 0 -2 30 1 68 3 37 10 130 15 207 18 250 61 457 126
602 l23 53 60 0 c95 0 159 18 200 55 36 33 36 34 36 118 l0 84 100 6 c113 6
209 32 259 70 52 40 68 86 76 217 12 175 44 231 172 296 83 42 133 85 161 138
23 44 25 94 16 296 -5 116 7 146 112 271 102 122 123 167 124 259 0 67 -4 81
-34 135 -89 155 -101 185 -101 245 0 51 7 72 56 169 61 120 73 171 54 241 -22
82 -162 194 -300 239 l-35 11 3 76 c9 170 -35 258 -202 404 -180 156 -228 231
-251 390 -15 107 -31 140 -89 185 -71 54 -209 95 -320 95 -25 0 -38 6 -46 20
-16 29 -110 97 -159 115 -23 8 -60 30 -82 48 -69 60 -115 69 -389 78 -256 8
-291 12 -480 59 -136 34 -209 42 -268 30z"/>
<path d="M5205 15146 c-255 -58 -462 -246 -542 -491 -37 -115 -43 -279 -14
-396 35 -140 91 -240 196 -345 77 -78 105 -98 185 -137 120 -58 206 -78 335
-78 204 1 362 67 511 216 78 78 98 104 137 185 62 129 81 222 75 363 -9 198
-72 342 -213 482 -94 93 -161 136 -282 178 -75 26 -106 30 -208 33 -78 3 -141
-1 -180 -10z"/>
<path d="M20902 13210 c-232 -61 -403 -224 -479 -455 -22 -68 -26 -97 -26
-200 0 -103 4 -132 26 -200 97 -296 378 -491 681 -472 179 11 314 73 441 201
132 134 195 283 196 466 0 107 -10 164 -48 260 -62 154 -174 275 -328 351
-141 69 -314 88 -463 49z"/>
</g>
</svg>
