<?xml version="1.0" standalone="no"?>
<!DOCTYPE svg PUBLIC "-//W3C//DTD SVG 20010904//EN"
 "http://www.w3.org/TR/2001/REC-SVG-20010904/DTD/svg10.dtd">
<svg version="1.0" xmlns="http://www.w3.org/2000/svg"
 width="1280.000000pt" height="1280.000000pt" viewBox="0 0 1280.000000 1280.000000"
 preserveAspectRatio="xMidYMid meet">
<metadata>
Created by potrace 1.15, written by Peter Selinger 2001-2017
</metadata>
<g transform="translate(0.000000,1280.000000) scale(0.100000,-0.100000)"
fill="#000000" stroke="none">
<path d="M8775 12640 c-11 -5 -34 -9 -52 -9 -17 -1 -60 -8 -95 -16 -35 -8 -85
-20 -113 -26 -148 -33 -306 -108 -359 -170 -20 -24 -36 -51 -36 -61 0 -10 18
-54 39 -97 l40 -78 -19 -31 c-28 -46 -47 -110 -59 -198 -15 -107 -15 -110 -2
-261 9 -119 9 -137 -8 -190 -32 -99 -53 -201 -47 -221 11 -33 65 -96 94 -109
15 -7 47 -12 71 -13 40 0 43 -2 37 -22 -3 -13 -6 -28 -6 -33 0 -12 -92 -30
-225 -45 -97 -10 -192 -39 -238 -72 -16 -11 -70 -29 -120 -40 -65 -14 -112
-31 -159 -59 -63 -37 -71 -39 -150 -39 -74 0 -115 8 -373 81 -159 45 -299 85
-310 90 -11 4 -63 22 -115 39 -52 17 -104 35 -115 40 -11 5 -96 35 -190 66
-291 97 -349 120 -408 162 -37 26 -64 38 -77 35 -15 -4 -53 27 -162 136 -149
148 -169 161 -241 147 -79 -15 -230 -131 -292 -223 -33 -51 -50 -164 -30 -198
7 -11 15 -32 19 -46 9 -42 70 -113 118 -137 25 -12 64 -22 86 -22 69 0 290
-65 339 -99 12 -9 23 -21 23 -26 1 -32 68 -97 208 -203 86 -65 200 -151 252
-191 151 -117 491 -282 795 -386 79 -27 195 -45 304 -48 61 -1 111 -6 111 -11
0 -8 21 -6 110 14 25 5 108 19 184 30 76 11 144 24 150 29 6 4 73 11 149 15
76 4 177 13 225 21 67 11 88 11 94 2 11 -18 11 -18 -27 -77 -45 -69 -61 -131
-69 -255 -10 -166 -32 -232 -181 -540 -36 -74 -65 -113 -161 -217 -124 -137
-133 -142 -245 -154 -65 -7 -90 3 -183 76 -77 60 -92 67 -251 125 -216 78
-313 105 -387 105 -71 0 -163 28 -628 190 -113 39 -263 92 -335 117 -369 128
-627 183 -865 183 -96 0 -265 -18 -415 -45 -93 -17 -367 -33 -720 -44 -292 -9
-314 -6 -461 68 -102 50 -318 131 -527 196 -113 36 -119 36 -151 21 -38 -18
-44 -35 -76 -201 -12 -60 -27 -132 -35 -160 -8 -27 -16 -63 -17 -80 -3 -26 -7
-30 -38 -33 -78 -8 -136 8 -216 59 -43 27 -86 49 -95 49 -10 0 -41 20 -70 45
-28 24 -77 62 -108 83 -31 21 -150 104 -266 184 -115 80 -219 156 -230 168
-22 25 -27 102 -11 175 l9 40 8 -40 c4 -23 3 -54 -2 -73 -16 -49 -4 -62 15
-17 13 30 16 56 12 100 -19 202 -29 229 -116 300 -37 30 -82 60 -99 66 -28 10
-35 8 -66 -16 -49 -37 -62 -60 -91 -161 -21 -75 -27 -124 -35 -304 l-10 -216
55 -116 c30 -64 94 -176 144 -249 75 -114 95 -153 133 -260 l43 -126 -33 -42
c-40 -50 -40 -53 -11 -238 19 -120 26 -141 53 -179 56 -73 80 -84 193 -86 63
-1 107 3 122 11 13 7 51 17 84 22 34 6 95 26 136 44 41 19 87 35 103 35 19 0
45 15 84 49 43 38 69 53 108 61 70 14 182 15 296 2 55 -7 101 -7 110 -2 8 4
119 6 246 4 218 -5 366 -18 535 -50 111 -20 305 -42 480 -53 573 -38 503 -29
625 -79 139 -57 685 -240 841 -282 166 -44 199 -57 284 -110 141 -88 339 -193
746 -395 283 -141 487 -269 815 -513 149 -112 199 -155 211 -182 13 -27 19
-103 29 -340 16 -391 17 -1556 1 -1700 -6 -58 -18 -195 -27 -305 -20 -264 -43
-516 -57 -640 -13 -112 -12 -456 2 -1125 5 -245 12 -573 15 -730 6 -288 19
-482 37 -554 7 -29 6 -41 -3 -46 -11 -7 43 -37 102 -55 13 -4 29 -13 36 -20 7
-7 31 -16 54 -20 23 -4 49 -15 59 -25 13 -13 42 -20 95 -25 l77 -8 26 -56 c14
-31 25 -64 25 -73 -1 -9 5 -19 13 -22 25 -9 20 -57 -35 -336 -12 -64 -39 -143
-81 -240 -34 -80 -74 -172 -87 -205 -14 -33 -32 -65 -39 -71 -8 -6 -19 -47
-25 -92 -10 -77 -10 -83 11 -112 21 -29 40 -39 40 -21 0 5 17 0 37 -10 64 -33
198 -26 423 23 95 21 148 43 269 115 57 33 70 47 103 108 55 101 75 161 97
287 18 99 24 116 48 135 20 16 29 19 35 10 12 -20 33 11 62 93 20 57 26 90 23
135 -3 55 -10 71 -77 180 -149 243 -153 251 -161 328 -4 40 -14 97 -20 127 -7
31 -13 133 -14 230 0 96 -2 218 -4 270 -2 96 23 452 33 469 4 5 15 69 27 143
14 93 22 202 26 363 l5 230 -41 245 c-40 240 -72 380 -106 470 -36 94 -45 171
-45 367 0 187 1 196 41 375 22 101 56 235 74 298 19 63 57 228 84 365 103 513
108 533 210 833 113 333 122 349 300 537 107 114 95 96 272 395 106 179 147
238 199 290 75 74 126 138 117 147 -8 7 3 28 60 116 23 37 63 97 86 135 142
220 358 594 437 758 163 335 277 595 331 754 l52 155 -1 133 c0 125 -20 325
-44 437 -35 168 -109 296 -230 399 -42 36 -143 130 -225 209 -81 79 -178 171
-214 203 -37 32 -78 73 -93 90 -14 18 -40 47 -57 65 -35 38 -51 72 -43 93 3 8
1 17 -5 21 -6 3 -11 34 -11 68 0 34 -5 89 -10 122 -39 252 -71 419 -83 442 -8
15 -20 46 -26 69 -17 62 -102 184 -177 253 -105 96 -288 200 -396 226 -69 16
-309 20 -343 5z"/>
</g>
</svg>
