<?xml version="1.0" standalone="no"?>
<!DOCTYPE svg PUBLIC "-//W3C//DTD SVG 20010904//EN"
 "http://www.w3.org/TR/2001/REC-SVG-20010904/DTD/svg10.dtd">
<svg version="1.0" xmlns="http://www.w3.org/2000/svg"
 viewBox="0 0 2604.000000 2604.000000"
 preserveAspectRatio="xMidYMid meet">
<metadata>
Created by potrace 1.13, written by Peter Selinger 2001-2015
</metadata>
<g transform="translate(0.000000,2604.000000) scale(0.100000,-0.100000)"
fill="#000000" stroke="none">
<path d="M14405 24436 c-44 -14 -138 -45 -209 -71 -71 -25 -328 -109 -570
-186 -243 -78 -470 -154 -505 -171 -78 -37 -130 -84 -220 -197 -241 -305 -368
-599 -387 -898 -4 -54 -1 -165 5 -247 16 -199 65 -532 87 -587 24 -59 225
-407 282 -489 25 -36 86 -116 134 -179 101 -129 151 -201 197 -283 l32 -57
-73 -34 c-227 -105 -381 -324 -475 -675 -14 -53 -49 -144 -78 -202 -172 -344
-294 -686 -329 -926 -18 -118 -36 -159 -84 -189 -17 -11 -46 -29 -64 -40 -17
-11 -44 -40 -59 -65 -30 -51 -26 -70 22 -99 l30 -18 -98 -83 c-180 -152 -428
-388 -610 -582 -214 -228 -288 -315 -360 -423 -29 -44 -82 -116 -118 -160 -37
-44 -85 -111 -108 -149 -23 -38 -76 -105 -117 -150 -281 -301 -378 -637 -297
-1026 35 -166 85 -338 159 -540 96 -264 215 -556 265 -653 57 -111 171 -283
256 -385 35 -43 77 -110 96 -152 82 -183 247 -449 409 -663 45 -59 103 -148
128 -199 25 -51 64 -120 85 -154 21 -33 39 -68 39 -77 0 -37 -200 -623 -323
-948 -31 -80 -63 -173 -71 -207 -30 -116 -17 -237 39 -367 27 -63 22 -128 -19
-227 -38 -91 -45 -152 -25 -205 5 -15 42 -60 81 -100 l71 -71 -38 -62 c-51
-84 -114 -158 -275 -325 -161 -167 -200 -213 -273 -325 -127 -197 -190 -350
-367 -893 -82 -254 -115 -338 -255 -657 -157 -361 -229 -563 -256 -727 -12
-70 -13 -73 -146 -245 -74 -95 -140 -179 -147 -186 -7 -7 -111 -27 -247 -47
-582 -83 -879 -167 -1180 -330 -240 -130 -436 -280 -660 -504 -190 -190 -262
-277 -481 -582 -217 -304 -318 -429 -449 -560 -121 -120 -253 -222 -396 -308
-113 -67 -499 -271 -512 -271 -5 0 -83 29 -173 64 -239 93 -228 91 -573 91
-261 0 -309 -2 -370 -19 -245 -65 -445 -242 -566 -501 -67 -142 -83 -217 -83
-393 -1 -141 1 -155 18 -168 11 -8 35 -14 53 -14 37 0 32 12 63 -155 66 -363
51 -518 -95 -1000 -85 -280 -111 -397 -126 -563 -37 -413 115 -801 441 -1122
105 -104 178 -153 279 -187 150 -51 267 -11 325 110 37 77 54 180 66 402 22
432 103 769 269 1119 98 207 232 401 526 761 258 317 367 467 461 640 43 79
36 72 164 164 251 180 511 322 1020 556 346 159 576 276 759 388 23 14 31 16
26 6 -5 -8 7 -1 26 14 18 15 99 71 179 124 147 97 247 167 400 279 136 100
416 242 985 501 127 58 390 183 585 278 216 105 412 193 500 225 200 72 297
121 372 189 35 31 86 70 113 85 173 99 284 233 476 576 35 63 165 266 288 450
123 184 291 443 374 575 198 317 567 873 807 1215 107 151 241 347 298 435 58
88 106 161 107 163 1 1 65 -21 141 -49 583 -214 1128 -375 2044 -604 162 -40
192 -51 243 -86 74 -52 205 -112 287 -132 36 -9 133 -21 215 -27 245 -18 300
-38 486 -177 63 -47 116 -87 118 -89 14 -13 -422 -627 -627 -882 -160 -200
-210 -279 -251 -395 -73 -210 -132 -667 -147 -1147 l-6 -205 -114 -281 c-194
-483 -364 -845 -549 -1168 -79 -137 -81 -139 -175 -211 -52 -39 -203 -145
-335 -235 -392 -266 -494 -351 -553 -465 -22 -42 -27 -63 -27 -131 0 -74 3
-87 38 -155 69 -136 162 -244 533 -619 606 -612 694 -694 939 -878 381 -284
785 -451 1140 -469 195 -10 302 17 389 97 105 97 104 276 -5 479 -55 102 -127
200 -339 456 -356 431 -448 577 -507 805 -83 323 8 900 229 1450 140 347 307
634 802 1380 635 959 732 1087 1052 1400 378 368 437 436 513 581 21 41 62 99
92 130 229 238 249 595 54 967 -81 155 -153 248 -341 441 -93 97 -249 264
-346 371 -180 200 -300 320 -423 425 -38 33 -132 119 -208 192 -218 209 -455
392 -802 618 -488 318 -599 396 -875 615 -302 239 -483 362 -684 463 -103 52
-103 52 -88 75 14 21 14 27 -2 58 -19 40 -50 56 -146 74 -36 7 -70 18 -76 24
-6 6 -30 55 -53 109 l-43 99 56 91 56 92 -30 26 c-17 15 -55 39 -83 54 -29 16
-53 29 -55 30 -1 1 9 26 23 56 14 30 25 61 25 70 0 9 13 32 30 50 34 39 38 70
11 107 -12 18 -21 54 -25 106 -4 44 -22 164 -41 269 l-34 189 21 41 c11 23 36
64 55 91 28 42 34 57 29 86 -3 19 -10 70 -15 112 -5 42 -12 85 -15 96 -4 11
-2 32 5 48 6 16 12 61 13 99 2 64 9 84 73 221 117 248 164 426 178 674 6 102
3 186 -21 511 l-7 87 59 46 c32 25 131 81 220 125 204 101 244 130 350 254
158 186 166 189 419 198 129 4 230 12 285 24 100 20 182 16 280 -15 36 -11 95
-23 132 -27 60 -5 73 -3 122 21 63 31 103 74 183 196 84 129 115 163 224 247
177 135 199 181 199 422 l0 156 36 85 c78 185 86 230 58 353 -46 205 -143 307
-337 357 -112 28 -339 53 -435 47 -108 -6 -161 -33 -277 -138 -109 -99 -181
-147 -283 -189 -259 -106 -294 -137 -406 -357 -107 -211 -196 -305 -398 -420
-79 -45 -345 -159 -353 -151 -4 4 -32 238 -50 428 -31 312 -138 991 -180 1133
-35 123 -77 201 -201 373 -126 176 -161 221 -359 463 -82 101 -161 197 -174
213 -21 26 -22 32 -10 61 24 60 82 142 140 198 l59 56 137 6 c181 6 279 37
364 114 57 52 69 102 69 297 0 89 5 177 10 196 6 19 15 60 20 90 5 30 16 80
24 110 15 50 15 59 0 107 -11 34 -14 65 -10 90 4 21 10 117 14 213 l7 176 36
44 c99 123 135 205 124 280 -6 39 -17 54 -94 130 -148 144 -245 291 -262 395
-11 71 -149 337 -231 445 -123 163 -134 186 -163 360 -29 173 -75 288 -148
367 -50 54 -73 66 -174 94 -43 11 -113 39 -156 60 -101 51 -141 55 -242 25z
m-2230 -7603 c21 -79 154 -483 259 -790 91 -267 167 -524 211 -715 l27 -117
-45 -58 c-95 -125 -104 -157 -63 -228 24 -40 24 -42 7 -68 -9 -14 -35 -38 -56
-52 -65 -43 -153 -136 -177 -185 -16 -34 -23 -71 -27 -154 -3 -60 -11 -111
-16 -113 -6 -2 -42 75 -82 170 -77 189 -104 292 -219 847 l-57 275 -7 280 c-5
154 -11 372 -15 485 -4 113 -5 257 0 322 l7 116 61 11 c34 6 76 15 92 20 17 5
42 10 57 10 24 1 28 -4 43 -56z"/>
</g>
</svg>
