<?xml version="1.0" standalone="no"?>
<!DOCTYPE svg PUBLIC "-//W3C//DTD SVG 20010904//EN"
 "http://www.w3.org/TR/2001/REC-SVG-20010904/DTD/svg10.dtd">
<svg version="1.0" xmlns="http://www.w3.org/2000/svg"
 viewBox="0 0 2600.000000 2600.000000"
 preserveAspectRatio="xMidYMid meet">
<metadata>
Created by potrace 1.15, written by Peter Selinger 2001-2017
</metadata>
<g transform="translate(0.000000,2600.000000) scale(0.100000,-0.100000)"
fill="#000000" stroke="none">
<path d="M7455 24484 c-474 -47 -869 -311 -1083 -721 -159 -305 -190 -691 -82
-1025 35 -109 95 -233 165 -338 64 -96 259 -291 355 -355 232 -154 469 -225
750 -225 371 0 681 128 941 389 202 202 327 439 374 713 21 120 21 344 0 463
-95 538 -514 965 -1053 1074 -96 20 -289 33 -367 25z"/>
<path d="M15560 20860 c-8 -5 -45 -10 -82 -10 -62 0 -68 -2 -93 -32 -22 -25
-26 -40 -23 -74 l3 -42 -32 5 c-26 4 -34 1 -48 -21 -30 -45 -15 -151 55 -396
77 -272 166 -620 176 -685 l7 -49 -54 47 c-106 94 -242 136 -375 118 -126 -18
-207 -89 -169 -147 15 -23 34 -30 161 -59 129 -30 194 -82 275 -219 56 -96
138 -147 389 -241 190 -72 189 -71 267 -187 191 -282 317 -540 488 -998 48
-129 113 -289 145 -355 78 -159 219 -619 204 -660 -9 -23 -48 -41 -228 -101
-88 -31 -185 -69 -215 -86 -30 -17 -85 -39 -121 -49 -104 -28 -294 -112 -540
-237 l-225 -114 -305 -9 c-277 -8 -444 -20 -509 -36 -19 -5 -22 -3 -18 13 16
54 17 93 4 131 -13 38 -13 44 3 58 31 28 59 17 135 -55 41 -38 78 -70 84 -70
18 0 40 30 81 109 65 125 93 137 118 52 25 -80 70 -79 132 3 22 29 68 77 103
107 185 159 302 328 358 517 7 23 16 42 20 42 14 0 37 -93 49 -196 6 -55 14
-110 17 -124 l6 -25 13 30 c15 35 17 197 5 350 -5 55 -6 104 -3 109 3 5 13 -2
23 -15 l19 -24 0 33 c0 49 25 41 97 -30 l63 -62 0 41 c0 78 16 67 106 -67 l56
-85 -6 50 c-4 28 -9 61 -11 75 -3 14 0 32 5 40 9 13 16 9 45 -24 l34 -38 7 27
c10 41 -2 223 -20 290 -17 62 -79 194 -141 300 -45 78 -54 109 -65 230 -14
165 -26 188 -215 404 -86 100 -130 171 -186 303 -36 88 -52 112 -104 164 -170
168 -520 339 -806 395 -112 21 -269 25 -351 8 -144 -30 -246 -121 -288 -257
l-18 -57 -65 -7 c-70 -8 -150 -39 -214 -82 -70 -47 -182 -169 -278 -301 -52
-72 -109 -145 -127 -162 -21 -20 -71 -45 -138 -71 -58 -21 -125 -51 -148 -66
-82 -51 -103 -127 -57 -201 13 -22 25 -46 25 -52 0 -7 -23 -38 -51 -69 -28
-31 -57 -71 -64 -89 -8 -17 -21 -38 -30 -45 -24 -20 -45 -65 -45 -98 0 -16 -9
-55 -20 -87 -30 -87 -53 -222 -46 -270 4 -23 16 -52 27 -64 11 -12 87 -66 170
-121 82 -55 149 -102 149 -105 0 -2 -24 7 -52 19 -29 13 -93 36 -142 52 -83
27 -91 32 -127 80 -133 180 -366 246 -686 193 l-72 -12 -71 43 c-105 62 -251
183 -372 308 -122 126 -191 221 -253 342 -76 150 -129 203 -585 573 -157 128
-337 276 -400 330 -158 135 -373 350 -420 420 -49 73 -105 219 -176 455 -74
246 -77 252 -143 252 -47 0 -85 19 -103 50 -15 27 -22 30 -65 30 -26 0 -95 -7
-153 -15 -58 -9 -145 -20 -193 -25 l-89 -10 -45 40 c-97 85 -194 52 -199 -69
-2 -45 -2 -46 -42 -53 -52 -9 -99 -33 -112 -57 -16 -31 -12 -91 10 -121 11
-15 17 -30 14 -32 -11 -11 21 -59 43 -64 12 -4 20 -10 17 -15 -12 -20 9 -48
43 -60 36 -12 151 -8 186 6 13 5 17 2 17 -12 0 -20 26 -47 73 -76 17 -11 27
-26 27 -41 0 -65 104 -193 235 -288 314 -230 257 -160 812 -982 462 -682 571
-830 676 -919 28 -25 147 -109 262 -187 281 -191 451 -316 666 -488 l179 -143
-6 -42 c-13 -79 -44 -146 -215 -462 -228 -422 -302 -660 -284 -917 19 -255 16
-270 -101 -650 -91 -297 -151 -534 -170 -683 -14 -105 -16 -156 -8 -304 16
-317 2 -480 -92 -1036 -43 -255 -56 -357 -57 -447 -2 -105 0 -118 19 -140 17
-19 19 -29 12 -58 -14 -58 -10 -413 7 -605 27 -306 73 -634 112 -796 l16 -67
-52 -90 c-170 -294 -303 -762 -370 -1302 -81 -647 -91 -1491 -27 -2217 9 -96
11 -167 5 -190 -12 -51 -11 -208 2 -262 19 -84 61 -154 139 -231 62 -63 94
-85 180 -127 105 -52 227 -90 370 -115 114 -20 452 -17 569 5 238 44 381 127
381 221 0 21 7 27 43 36 86 22 390 113 631 189 l249 78 101 -82 c295 -240 748
-541 894 -595 47 -18 68 -34 122 -96 36 -41 189 -192 340 -337 772 -737 913
-873 1131 -1093 400 -406 620 -661 717 -834 31 -54 31 -56 12 -68 -51 -32 -16
-106 148 -315 108 -137 143 -195 236 -389 143 -298 242 -581 255 -731 4 -45
16 -99 25 -120 42 -87 161 -166 284 -189 80 -15 184 1 254 39 111 61 172 160
258 423 72 218 85 289 85 470 0 193 -12 236 -130 475 -50 100 -93 203 -106
251 l-21 80 54 55 c74 74 98 139 105 280 9 165 -27 353 -127 667 -33 107 -48
140 -75 166 -90 90 -266 71 -687 -73 -81 -28 -166 -55 -189 -60 -41 -9 -42 -9
-91 42 -99 103 -205 246 -503 682 -109 160 -224 324 -256 366 -39 50 -100 158
-183 325 -69 137 -155 296 -191 354 -185 294 -396 513 -654 678 l-104 67 74
12 c124 19 369 35 439 29 131 -13 141 -16 130 -36 -15 -28 -12 -67 6 -74 9 -3
35 -6 59 -6 28 0 45 -5 48 -14 11 -27 143 -95 382 -196 552 -234 779 -370
1010 -605 127 -129 159 -149 223 -142 83 9 154 110 189 269 23 107 21 317 -5
438 -61 283 -214 562 -422 770 -118 118 -198 178 -386 285 l-100 58 18 35 c57
113 -20 279 -227 488 -115 116 -297 266 -369 305 -34 18 -51 21 -87 15 -106
-16 -216 -110 -582 -498 -179 -190 -146 -172 -392 -208 -265 -39 -593 -70
-740 -70 l-81 0 -33 97 c-81 240 -559 1361 -874 2049 l-64 140 19 25 c169 207
196 835 57 1299 -17 58 -31 121 -30 140 8 170 0 334 -28 585 -17 154 -33 303
-36 330 -30 286 -24 574 15 715 63 224 228 471 472 705 130 125 215 197 493
415 281 221 368 294 449 381 82 86 134 164 156 232 17 50 20 53 91 89 41 21
184 83 319 139 135 55 349 144 475 196 628 259 1071 476 1260 615 43 31 80 49
130 62 260 65 588 284 756 505 66 88 128 214 135 276 4 31 -2 95 -15 170 -59
329 -153 516 -294 584 -27 13 -51 31 -54 40 -42 137 -247 510 -732 1336 -116
197 -216 375 -221 395 -5 19 -19 118 -30 220 -39 345 -61 415 -193 613 -52 78
-136 214 -187 302 -136 236 -154 260 -206 291 -34 20 -59 27 -99 27 l-54 0
-16 47 c-18 54 -73 123 -116 145 -32 17 -116 20 -139 5z m-960 -4199 c0 -7
-31 -11 -90 -11 -105 0 -107 2 -64 97 l25 58 65 -66 c35 -37 64 -72 64 -78z
m-2174 -9002 c-12 -3 -36 -14 -55 -23 -24 -13 -32 -14 -28 -4 3 7 13 37 22 65
l16 53 33 -43 c31 -40 32 -42 12 -48z"/>
</g>
</svg>
