<?xml version="1.0" standalone="no"?>
<!DOCTYPE svg PUBLIC "-//W3C//DTD SVG 20010904//EN"
 "http://www.w3.org/TR/2001/REC-SVG-20010904/DTD/svg10.dtd">
<svg version="1.0" xmlns="http://www.w3.org/2000/svg"
 viewBox="0 0 2604.000000 2604.000000"
 preserveAspectRatio="xMidYMid meet">
<metadata>
Created by potrace 1.13, written by Peter Selinger 2001-2015
</metadata>
<g transform="translate(0.000000,2604.000000) scale(0.100000,-0.100000)"
fill="#000000" stroke="none">
<path d="M9940 19590 c-94 -13 -200 -38 -325 -76 -60 -18 -171 -48 -246 -67
-148 -38 -210 -63 -424 -169 -480 -240 -803 -453 -1067 -705 -68 -65 -193
-182 -279 -260 -85 -78 -193 -186 -240 -240 -46 -54 -133 -154 -194 -223 -153
-174 -212 -248 -362 -455 -154 -213 -184 -260 -248 -384 -27 -52 -85 -144
-129 -205 -210 -291 -292 -424 -469 -758 -204 -384 -265 -509 -328 -675 -69
-181 -94 -231 -169 -343 -31 -47 -103 -164 -160 -260 -140 -237 -312 -491
-510 -755 -225 -300 -319 -415 -347 -426 -13 -5 -48 -9 -76 -9 -29 0 -99 -7
-157 -15 -58 -9 -168 -20 -245 -25 -222 -14 -358 -62 -590 -208 -173 -109
-241 -162 -311 -239 -48 -53 -73 -73 -91 -73 -35 0 -57 -14 -150 -94 -115
-100 -198 -131 -503 -191 -272 -53 -400 -84 -494 -119 -228 -86 -406 -233
-406 -335 0 -109 206 -146 475 -86 66 15 210 58 320 96 198 69 480 149 524
149 39 0 21 -31 -65 -110 -98 -92 -181 -135 -428 -220 -196 -68 -521 -206
-705 -300 -205 -104 -291 -204 -299 -350 -7 -119 24 -160 119 -160 21 0 39 -2
39 -4 0 -3 -9 -20 -19 -38 -28 -47 -52 -147 -45 -184 3 -18 19 -45 36 -61 27
-26 35 -28 106 -28 130 1 262 46 672 225 298 131 350 150 655 234 l240 67 58
-27 59 -26 -64 -47 c-142 -103 -257 -147 -553 -210 -363 -78 -553 -152 -722
-282 -118 -92 -229 -237 -247 -325 -11 -48 14 -97 60 -120 52 -25 183 -24 274
4 429 128 877 251 1100 302 369 82 606 144 713 185 14 6 17 1 17 -27 0 -47 39
-119 79 -145 78 -52 160 -19 270 108 36 41 133 142 216 224 84 83 224 233 311
335 264 308 326 368 564 547 118 88 279 215 357 280 123 102 155 135 236 244
149 201 210 273 388 456 260 268 458 505 594 713 181 277 238 367 259 409 47
92 149 236 210 295 34 34 104 115 157 181 156 196 527 603 666 731 319 295
538 440 1103 734 379 197 426 222 651 356 184 109 300 174 313 174 2 0 50 -52
106 -114 306 -344 429 -544 625 -1021 203 -494 418 -880 745 -1340 346 -485
717 -870 1117 -1159 l122 -87 31 -87 c17 -48 47 -134 66 -192 l34 -104 -33
-36 c-304 -322 -453 -524 -652 -880 -54 -96 -125 -214 -158 -262 -75 -111
-191 -220 -293 -277 -137 -76 -414 -265 -562 -384 -79 -63 -239 -200 -354
-303 -229 -205 -291 -257 -595 -495 -185 -146 -208 -161 -280 -184 -116 -36
-193 -52 -338 -70 -71 -9 -238 -36 -370 -61 -470 -88 -550 -119 -848 -320
-262 -178 -336 -208 -546 -223 -166 -13 -229 -36 -401 -151 -47 -31 -123 -77
-170 -103 -47 -27 -117 -71 -155 -100 l-70 -52 35 -5 c61 -9 -382 -49 -615
-56 -215 -6 -222 -5 -318 20 -53 14 -115 26 -137 26 -52 0 -171 -46 -285 -111
-223 -126 -284 -150 -455 -179 -65 -10 -142 -29 -171 -40 -105 -41 -269 -139
-269 -161 0 -14 70 -28 140 -28 36 -1 423 3 860 7 l795 8 145 33 c211 47 311
81 435 149 136 75 186 89 350 97 106 5 147 12 220 36 50 17 108 42 130 57 l40
27 -98 7 c-53 4 -161 19 -240 34 -126 25 -164 28 -332 27 l-190 -1 105 23 105
23 -70 2 -70 2 105 18 c58 10 157 29 220 43 128 28 584 107 755 131 234 33
521 48 500 27 -43 -42 -236 -127 -317 -139 -45 -7 -30 -9 102 -15 153 -7 215
-3 439 28 63 8 115 14 117 12 2 -1 -97 -29 -219 -61 -257 -67 -353 -101 -567
-202 -85 -40 -189 -86 -230 -102 -41 -16 -110 -48 -153 -71 -43 -23 -89 -41
-102 -41 -31 0 -33 -26 -3 -33 28 -8 102 7 215 43 203 65 370 78 1043 82 530
3 526 4 706 -57 55 -19 127 -37 160 -40 32 -3 77 -8 99 -11 21 -3 36 -2 32 2
-14 15 128 61 208 68 106 10 238 41 287 69 27 14 48 37 64 69 37 74 80 78 184
20 119 -67 315 -144 425 -167 87 -18 108 -14 43 7 l-43 15 61 6 c145 15 315
92 347 158 26 53 12 79 -99 185 -88 84 -95 95 -92 125 3 31 6 34 38 37 21 2
71 -10 123 -28 146 -51 599 -147 640 -134 12 3 33 17 47 30 46 42 97 57 226
62 173 7 311 -21 514 -105 88 -36 451 -208 715 -339 83 -40 180 -81 216 -91
65 -17 67 -16 160 8 84 21 111 24 259 21 91 -1 226 2 300 7 l135 9 130 -55
c216 -92 292 -119 490 -173 105 -29 223 -65 263 -81 40 -16 88 -29 108 -29
l35 0 -15 27 c-17 33 -65 79 -121 117 l-40 28 50 -6 c28 -3 100 -11 160 -17
163 -15 319 -37 510 -69 94 -16 220 -35 280 -41 174 -18 405 2 405 36 0 16
-48 63 -83 81 -15 8 -67 30 -115 48 -49 19 -137 58 -197 88 -61 30 -156 75
-213 99 -57 24 -97 45 -90 46 7 2 74 7 148 12 211 16 377 52 482 107 26 14 86
17 368 21 456 6 641 -8 1090 -84 195 -33 231 -36 384 -34 153 2 179 -1 275
-25 166 -41 162 -50 -11 -29 -21 3 -38 3 -38 -1 0 -19 260 -114 314 -114 17 0
17 2 4 22 -8 13 -30 33 -49 46 l-34 24 40 -7 c181 -31 280 -66 432 -158 130
-78 220 -123 292 -148 59 -21 166 -25 176 -9 10 15 -28 61 -146 177 -139 136
-172 160 -325 237 -80 40 -188 107 -280 172 -82 59 -189 134 -239 167 l-90 60
87 -7 c99 -7 174 -21 383 -71 176 -42 329 -55 427 -35 35 6 67 14 71 17 4 3
-11 17 -35 33 -66 42 -140 131 -120 144 5 3 52 13 103 23 150 27 410 23 634
-11 98 -15 181 -28 183 -30 1 -2 -8 -6 -21 -10 -22 -5 -25 -13 -31 -73 -4 -38
-9 -80 -12 -96 l-6 -27 -101 0 -101 0 54 -55 c49 -49 58 -55 85 -50 64 13 65
14 65 57 l0 41 118 -7 c171 -10 309 -33 441 -72 64 -19 191 -54 283 -79 174
-46 214 -63 365 -152 175 -104 282 -137 600 -184 114 -16 275 -48 358 -69 215
-55 304 -70 419 -70 91 0 207 18 223 34 12 12 -17 56 -58 85 -57 42 -126 66
-329 117 -162 40 -457 145 -645 229 -83 37 -183 97 -230 138 l-39 34 244 -3
245 -4 -75 19 c-114 29 -208 70 -468 200 -131 65 -266 129 -302 141 -54 18
-78 34 -140 94 -77 75 -201 184 -255 223 -16 12 -25 23 -18 23 12 0 63 -38
204 -154 46 -37 102 -76 124 -87 48 -22 95 -25 95 -5 0 21 -75 92 -180 170
-179 132 -250 215 -250 288 0 45 1 45 195 52 72 2 144 9 162 16 28 10 45 7
140 -23 60 -20 141 -38 183 -42 111 -9 168 -24 202 -53 l31 -26 -5 61 c-7 104
-52 179 -186 312 l-114 113 20 20 20 20 109 -21 c59 -13 158 -25 218 -28 61
-2 133 -12 160 -20 79 -25 81 -25 55 -9 l-25 15 27 1 c81 1 211 -49 290 -112
23 -17 72 -75 111 -127 72 -100 93 -121 140 -147 l28 -15 -14 28 c-8 15 -25
62 -37 103 -32 109 -116 249 -190 315 -12 11 -54 56 -94 100 l-71 79 48 -28
c163 -94 331 -239 537 -461 206 -223 309 -313 418 -367 71 -36 92 -42 145 -42
105 1 170 48 262 193 57 88 153 286 191 394 l27 78 41 -38 c246 -232 312 -285
327 -262 5 8 9 44 9 80 0 77 -26 165 -77 259 l-35 65 32 -30 c17 -16 49 -60
71 -96 37 -61 89 -123 89 -105 0 24 -72 138 -139 218 -113 138 -141 175 -141
187 0 17 12 13 71 -22 30 -19 81 -51 114 -71 l60 -37 8 25 c21 63 -88 340
-183 466 -23 30 -55 84 -71 119 -16 36 -40 78 -52 95 -13 17 -29 57 -36 89
-40 181 -238 437 -506 651 -150 120 -389 278 -510 337 -363 176 -754 211
-1380 124 -253 -35 -346 -63 -490 -149 -49 -30 -129 -72 -176 -94 -47 -21
-104 -55 -125 -74 -67 -60 -89 -68 -143 -49 -39 14 -95 16 -385 13 -513 -4
-524 -7 -824 -281 l-123 -112 -82 4 c-45 2 -116 12 -157 21 -155 37 -338 17
-499 -54 -83 -36 -290 -151 -419 -232 -51 -32 -96 -58 -100 -58 -5 0 -41 51
-81 113 -100 152 -264 315 -476 473 -88 66 -216 163 -285 215 -160 122 -259
189 -361 242 -79 41 -82 44 -102 97 -73 203 -349 855 -431 1018 -113 225 -234
420 -396 637 -253 341 -515 606 -1074 1088 -234 202 -542 413 -747 513 -49 23
-62 36 -95 93 -57 97 -208 324 -277 416 -218 289 -644 722 -1237 1261 -435
395 -509 458 -880 749 -146 115 -317 251 -380 304 -159 131 -482 456 -695 701
-98 113 -236 264 -306 335 -70 72 -134 144 -143 161 -25 50 -109 136 -167 171
-70 42 -209 87 -329 107 -118 20 -314 28 -400 16z m11172 -10285 c43 -7 102
-25 133 -39 l55 -25 -25 36 c-13 20 -23 38 -22 40 6 6 239 -69 344 -110 131
-52 175 -77 262 -146 67 -54 68 -59 5 -37 -22 7 -68 16 -104 20 -60 6 -64 5
-45 -10 11 -8 68 -40 126 -70 207 -106 286 -173 313 -264 7 -25 13 -46 12 -47
-1 -1 -67 21 -146 48 -169 59 -337 101 -491 125 -96 15 -115 21 -155 51 -124
95 -297 187 -514 274 l-145 58 135 2 c74 1 148 4 165 8 l30 6 -35 27 c-19 14
-60 38 -90 51 l-55 25 85 -5 c47 -3 120 -11 162 -18z"/>
<path d="M21630 9095 c19 -19 36 -35 39 -35 3 0 -10 16 -29 35 -19 19 -36 35
-39 35 -3 0 10 -16 29 -35z"/>
<path d="M12139 8343 l63 -58 -49 -1 c-27 -1 -87 -15 -134 -30 l-84 -29 -260
2 -260 2 90 -33 c58 -21 111 -33 148 -34 40 -1 99 -16 190 -47 104 -36 178
-53 347 -81 318 -51 453 -86 575 -147 85 -42 147 -86 333 -235 167 -133 313
-221 377 -225 28 -2 30 1 33 35 7 85 -92 189 -339 358 -148 101 -152 105 -119
108 37 3 162 -18 405 -67 83 -16 206 -39 275 -51 69 -11 172 -30 230 -41 136
-26 300 -20 300 12 0 22 -100 114 -180 167 -47 31 -158 94 -247 140 -194 99
-371 160 -658 226 -351 80 -334 78 -735 83 l-365 4 64 -58z"/>
<path d="M18740 7980 c-63 -5 -212 -24 -330 -44 -230 -38 -391 -56 -505 -56
l-70 -1 43 -39 c47 -42 49 -43 208 -58 143 -14 249 -61 369 -165 l39 -34 -67
-16 c-165 -42 -334 -43 -922 -7 -162 10 -1052 14 -1043 4 3 -3 31 -12 62 -20
31 -8 127 -43 214 -78 86 -35 182 -71 212 -79 89 -26 225 -37 365 -30 158 7
253 -4 475 -57 236 -56 339 -64 775 -57 215 4 449 2 559 -4 246 -14 446 7 446
45 0 26 -47 81 -93 110 -26 16 -75 37 -109 46 l-63 18 40 6 c22 4 128 28 235
54 l195 47 380 1 c226 0 445 6 540 14 88 7 253 13 367 14 115 1 208 2 208 4 0
2 -48 26 -107 54 -172 80 -266 108 -406 119 -167 13 -232 25 -372 65 -155 45
-236 54 -388 42 -67 -5 -174 -8 -237 -6 -105 4 -128 9 -257 52 -85 28 -175 51
-225 56 -94 11 -366 11 -538 0z"/>
<path d="M21296 7583 c42 -31 260 -103 309 -103 18 1 16 4 -12 30 -38 34 -136
66 -242 78 -63 7 -71 7 -55 -5z"/>
<path d="M10240 7361 c0 -6 28 -32 62 -57 l63 -46 -140 9 c-77 4 -259 8 -405
8 -300 -1 -342 -6 -655 -90 -93 -25 -235 -61 -315 -80 -80 -20 -186 -49 -236
-66 -95 -31 -201 -90 -174 -96 9 -2 243 19 520 47 468 48 513 50 615 41 171
-16 235 -20 440 -31 523 -27 707 -50 1041 -130 665 -159 1256 -396 1634 -655
205 -140 229 -148 285 -92 23 23 40 56 58 118 24 78 32 91 85 141 145 139 307
162 643 94 96 -19 212 -40 259 -46 167 -20 420 -22 733 -6 392 20 712 21 882
1 81 -9 193 -32 295 -60 91 -24 197 -49 235 -54 91 -12 1175 -12 1280 0 120
14 298 74 318 106 3 5 -122 8 -276 8 -300 1 -427 12 -677 61 -260 50 -315 55
-709 64 -406 10 -511 18 -705 51 -76 13 -203 24 -341 29 -251 10 -263 12 -555
85 -284 71 -431 100 -630 125 -217 28 -441 73 -567 115 -100 33 -242 99 -295
137 -61 43 -23 4 67 -68 53 -42 94 -79 91 -81 -10 -10 -118 -3 -182 12 -37 8
-117 31 -178 49 -307 94 -659 157 -710 129 -16 -9 -15 -12 7 -39 14 -16 85
-72 158 -124 73 -52 155 -116 183 -141 28 -25 113 -92 188 -148 76 -56 143
-111 149 -123 11 -20 10 -21 -27 -15 -59 9 -197 82 -421 221 -272 169 -371
209 -638 256 -66 12 -190 37 -276 56 -144 31 -274 47 -599 73 -133 11 -289 46
-361 80 -32 15 -36 20 -16 16 15 -3 27 -2 27 3 0 16 -75 81 -110 95 -51 21
-120 31 -120 18z"/>
</g>
</svg>
