<?xml version="1.0" standalone="no"?>
<!DOCTYPE svg PUBLIC "-//W3C//DTD SVG 20010904//EN"
 "http://www.w3.org/TR/2001/REC-SVG-20010904/DTD/svg10.dtd">
<svg version="1.0" xmlns="http://www.w3.org/2000/svg"
 viewBox="0 0 2600.000000 2604.000000"
 preserveAspectRatio="xMidYMid meet">
<metadata>
Created by potrace 1.13, written by Peter Selinger 2001-2015
</metadata>
<g transform="translate(0.000000,2604.000000) scale(0.100000,-0.100000)"
fill="#000000" stroke="none">
<path d="M10412 20690 c-20 -13 -35 -31 -38 -49 l-6 -29 -35 24 c-52 35 -99
41 -131 17 -15 -11 -28 -30 -30 -42 -4 -28 -9 -27 -68 11 -58 38 -102 41 -159
12 -51 -26 -80 -80 -96 -180 -6 -41 -14 -74 -16 -74 -2 0 -115 -16 -251 -36
-1835 -264 -3809 -711 -5782 -1311 -274 -83 -317 -94 -335 -82 -68 43 -127 57
-184 42 -27 -7 -37 -16 -46 -43 -14 -41 -39 -49 -84 -26 -17 9 -55 16 -90 16
-54 0 -62 -3 -83 -29 -23 -29 -24 -29 -80 -18 -81 15 -134 -2 -154 -49 -13
-31 -18 -34 -58 -34 -91 0 -128 -35 -130 -123 l0 -53 -96 -33 c-177 -62 -704
-250 -805 -289 -88 -33 -102 -42 -117 -72 -22 -44 -23 -110 -2 -181 17 -56
101 -227 132 -267 l18 -23 119 47 c233 91 888 314 923 314 6 0 18 -24 27 -52
63 -194 145 -259 384 -305 250 -47 284 -60 386 -145 119 -99 246 -256 356
-438 72 -120 450 -887 528 -1072 29 -68 84 -217 122 -332 103 -311 166 -425
318 -576 48 -47 145 -125 216 -175 208 -144 343 -285 467 -490 123 -201 237
-469 294 -690 24 -91 82 -206 173 -345 150 -226 162 -263 201 -605 34 -294 74
-423 198 -632 127 -215 259 -377 576 -708 100 -104 267 -282 373 -395 424
-454 570 -556 1163 -817 117 -52 243 -112 280 -133 64 -38 91 -57 300 -216 58
-44 174 -122 259 -173 221 -135 581 -409 849 -645 146 -130 463 -451 523 -531
25 -33 85 -125 134 -205 111 -182 123 -198 308 -405 343 -383 419 -460 577
-582 212 -165 482 -276 810 -335 118 -21 477 -17 560 6 97 26 213 84 357 177
70 45 178 111 238 147 389 229 497 300 730 477 290 220 430 304 658 395 190
75 313 142 537 293 138 94 448 274 527 307 105 45 211 52 276 21 86 -42 163
-132 293 -346 77 -127 219 -326 287 -402 19 -21 71 -86 116 -145 73 -96 79
-108 59 -108 -13 0 -34 -3 -47 -7 -22 -6 -23 -10 -18 -57 10 -97 57 -179 222
-386 51 -63 120 -157 155 -208 114 -168 229 -269 335 -293 137 -30 282 79 560
421 193 239 397 425 544 498 60 30 88 37 146 40 92 5 108 -2 318 -142 443
-294 781 -654 1003 -1068 92 -172 129 -231 199 -324 34 -44 90 -129 126 -189
79 -133 134 -196 201 -229 126 -63 265 -16 470 157 35 30 149 120 253 201 535
415 719 573 896 773 63 70 185 204 272 298 319 341 415 511 405 719 -4 99 -26
148 -81 184 -35 23 -51 27 -117 27 -70 0 -84 -4 -161 -42 -46 -23 -127 -77
-179 -119 -165 -134 -196 -148 -535 -237 -674 -179 -1098 -197 -1374 -58 -171
87 -898 692 -1003 835 -43 59 -58 126 -68 296 -9 164 -27 238 -72 295 -39 50
-74 57 -242 49 -142 -6 -155 -5 -201 15 -68 30 -165 133 -325 347 -162 215
-245 304 -410 439 -147 120 -158 133 -320 375 -258 385 -358 498 -505 570
-116 58 -189 74 -325 74 -131 -1 -239 -19 -409 -70 -191 -58 -229 -74 -344
-151 -98 -66 -114 -74 -150 -71 -56 4 -72 35 -93 173 -24 166 -75 294 -281
710 -60 121 -131 274 -157 340 -107 262 -205 430 -353 605 -107 128 -185 197
-261 233 -55 26 -71 29 -135 25 -128 -7 -290 -89 -561 -282 -297 -213 -326
-238 -862 -757 -384 -372 -470 -465 -608 -657 -120 -166 -452 -686 -512 -802
-92 -178 -151 -230 -257 -230 -64 0 -125 34 -180 101 -19 24 -65 80 -102 124
-258 309 -283 347 -400 590 -97 204 -153 289 -359 555 -178 230 -278 332 -526
539 -226 188 -548 509 -694 691 -225 281 -462 665 -495 802 -29 121 -5 251 85
461 30 73 78 185 105 249 62 146 108 309 259 900 65 256 137 528 159 605 52
181 56 197 91 435 20 134 45 259 76 368 109 393 129 555 144 1163 14 591 35
728 228 1512 38 154 84 354 102 445 18 91 33 166 34 167 7 9 950 110 1286 138
605 49 1293 68 1700 46 2409 -130 4661 -691 6915 -1722 282 -129 1001 -493
1297 -658 863 -479 1708 -1031 2428 -1586 80 -61 151 -115 158 -119 9 -6 12
64 12 336 l0 343 -163 121 c-1604 1197 -3500 2168 -5562 2847 -480 158 -906
281 -1304 377 -737 177 -888 210 -1213 270 -647 118 -1287 191 -2088 237 -378
21 -1546 24 -1930 5 -535 -27 -913 -53 -1270 -87 -212 -20 -210 -20 -210 10 0
66 -60 138 -125 151 -49 9 -92 -4 -131 -38 -19 -17 -36 -29 -37 -27 -1 2 -7
13 -13 24 -33 60 -129 83 -192 45z m-553 -990 c8 -14 31 -50 51 -80 137 -203
139 -294 11 -583 -65 -147 -87 -222 -161 -547 -79 -348 -87 -370 -209 -584
-148 -258 -252 -500 -312 -723 -65 -245 -80 -408 -55 -637 24 -224 30 -415 17
-546 -13 -126 -105 -559 -147 -686 -44 -136 -98 -237 -241 -451 -77 -115 -170
-262 -208 -328 -41 -71 -92 -143 -125 -177 -48 -50 -61 -58 -92 -58 -73 0 -93
66 -67 230 14 92 0 141 -55 196 -34 35 -57 47 -131 69 -183 54 -201 63 -294
148 -212 197 -380 282 -605 308 -120 13 -231 4 -416 -37 -133 -29 -213 -64
-290 -129 -81 -68 -133 -96 -178 -97 -104 -1 -170 87 -243 323 -44 145 -101
250 -230 424 -110 148 -136 191 -298 477 -46 80 -112 184 -147 230 -35 45 -96
128 -136 183 -121 169 -178 232 -321 357 -162 142 -216 199 -333 351 -48 61
-119 150 -159 197 -82 98 -105 131 -206 295 -40 66 -96 153 -125 193 -29 40
-72 112 -97 160 -43 84 -133 310 -126 316 12 10 319 120 534 192 1019 338
2352 659 3815 918 140 25 472 72 738 106 483 60 721 93 777 108 30 8 30 8 40
-42 6 -28 17 -62 24 -76z"/>
</g>
</svg>
